<?xml version="1.0" standalone="no"?>
<!DOCTYPE svg PUBLIC "-//W3C//DTD SVG 20010904//EN"
 "http://www.w3.org/TR/2001/REC-SVG-20010904/DTD/svg10.dtd">
<svg version="1.0" xmlns="http://www.w3.org/2000/svg"
 width="500.000000pt" height="500.000000pt" viewBox="0 0 500.000000 500.000000"
 preserveAspectRatio="xMidYMid meet">

<g transform="translate(0.000000,500.000000) scale(0.100000,-0.100000)"
fill="#000000" stroke="none">
<path d="M1588 2973 c-10 -2 -18 -8 -18 -13 0 -5 -6 -7 -14 -4 -16 6 -16 -12
-2 -35 6 -9 5 -12 -1 -8 -15 10 -29 -13 -31 -51 -3 -44 6 -58 25 -35 8 10 11
11 7 3 -5 -12 -4 -12 6 -3 15 14 3 36 -17 29 -8 -3 -11 -1 -8 4 4 6 14 9 23 8
14 -2 17 5 17 39 0 30 6 46 20 57 21 16 21 16 -7 9z"/>
<path d="M1786 2962 c-11 -10 -6 -21 7 -18 6 1 9 1 4 -1 -4 -3 -4 -10 -1 -15
4 -7 2 -8 -5 -4 -17 11 -40 -12 -36 -34 2 -11 1 -19 -3 -19 -21 3 -24 -3 -7
-14 17 -13 17 -14 -4 -12 -12 1 -27 7 -34 15 -6 7 -7 10 -1 7 6 -3 18 2 26 13
12 13 13 20 4 23 -15 6 -46 -16 -46 -32 0 -7 -4 -10 -9 -7 -14 9 -21 -20 -8
-35 10 -11 9 -11 -5 0 -10 7 -15 18 -12 25 3 6 -4 0 -15 -14 -11 -14 -21 -28
-21 -32 0 -5 -5 -8 -11 -8 -5 0 -7 6 -3 13 5 8 3 8 -9 -2 -9 -7 -15 -16 -13
-20 2 -3 -2 -11 -9 -18 -10 -9 -15 -9 -17 -1 -3 8 -10 8 -26 -1 -12 -6 -22 -8
-22 -2 0 5 -7 11 -15 15 -11 4 -13 1 -6 -12 5 -9 14 -29 21 -44 7 -15 18 -25
23 -21 6 4 7 1 3 -6 -9 -14 41 -70 63 -71 8 0 11 -3 8 -7 -4 -3 -2 -12 4 -20
10 -11 15 -11 27 -1 13 11 15 10 10 -3 -4 -11 3 -26 19 -40 13 -13 26 -22 27
-19 2 3 15 -10 30 -27 15 -18 34 -33 42 -33 9 0 13 -4 10 -9 -3 -5 1 -12 10
-15 8 -3 12 -10 9 -16 -12 -19 27 -24 41 -5 10 14 14 15 14 4 0 -8 14 2 33 22
28 33 107 74 92 49 -10 -16 -15 -52 -16 -112 -1 -32 -5 -55 -10 -53 -11 8 -49
-17 -49 -32 0 -7 -7 -10 -15 -7 -8 4 -12 10 -9 15 3 5 2 9 -3 9 -4 0 -9 19
-11 42 -2 24 -8 47 -14 53 -8 7 -9 6 -4 -3 4 -7 4 -12 -1 -11 -31 5 -32 -4 -8
-48 15 -27 33 -53 41 -59 7 -6 13 -13 11 -15 -1 -3 5 3 14 13 9 9 19 14 23 11
3 -4 6 1 6 9 0 9 6 16 13 15 40 -1 67 4 62 12 -6 11 28 7 48 -6 6 -4 30 -10
52 -13 l40 -5 -35 -17 c-42 -20 -73 -55 -64 -70 4 -7 3 -8 -4 -4 -12 7 -17 -6
-6 -17 8 -8 35 3 30 12 -3 4 0 13 5 21 7 11 8 8 5 -10 -3 -14 -5 -28 -5 -32
-1 -4 -12 -5 -25 -2 -17 3 -29 -2 -39 -16 -14 -20 -93 -67 -81 -49 3 5 1 9 -5
9 -5 0 -15 -8 -20 -17 -6 -10 -11 -13 -11 -7 0 6 3 14 7 18 13 13 11 36 -3 36
-9 0 -13 -4 -10 -8 3 -5 -15 -30 -39 -57 -44 -48 -58 -68 -31 -46 8 7 22 8 36
3 l24 -9 -22 -5 c-12 -4 -20 -2 -16 3 3 5 1 9 -5 9 -5 0 -13 -5 -16 -10 -4 -6
-16 -8 -28 -5 -17 5 -19 4 -7 -4 9 -7 88 -11 203 -11 155 0 189 3 193 15 3 8
2 20 -2 27 -12 18 -14 39 -4 33 13 -8 11 314 -1 338 -8 14 -8 18 0 13 6 -4 11
0 11 9 0 9 -4 13 -10 10 -6 -3 -7 1 -4 9 3 9 9 16 13 17 3 0 14 2 24 4 9 2 15
-1 11 -6 -3 -5 -9 -7 -14 -4 -5 3 -12 1 -15 -5 -5 -8 27 -10 101 -9 101 2 106
4 84 18 -13 9 -44 35 -69 58 -28 26 -53 41 -65 39 -11 -2 -28 7 -38 18 -12 14
-17 16 -16 6 2 -8 7 -18 13 -22 5 -4 0 -6 -13 -5 -22 1 -32 17 -10 17 6 0 8 3
5 7 -4 3 -1 13 6 21 7 10 8 13 1 9 -7 -4 -14 2 -17 13 -4 15 -12 20 -29 16
-18 -3 -26 2 -36 22 l-12 25 23 -19 c13 -10 11 -8 -3 6 -36 35 -102 85 -111
85 -4 0 -21 14 -37 30 -60 60 -167 137 -176 127z m91 -96 c-7 -13 -15 -22 -20
-19 -4 3 -2 12 5 21 11 14 10 15 -7 9 -19 -7 -19 -7 -1 8 26 20 37 10 23 -19z
m47 -12 c19 -18 19 -21 6 -29 -6 -4 -9 -1 -8 7 2 7 -3 12 -10 10 -8 -1 -11 2
-6 9 5 9 2 10 -10 6 -10 -4 -15 -3 -11 3 9 14 21 12 39 -6z m-261 -60 c-3 -8
-7 -14 -10 -14 -3 0 -3 6 0 14 3 7 0 20 -6 27 -10 11 -9 11 5 0 9 -7 14 -19
11 -27z m290 25 c-6 -6 -9 -19 -6 -28 4 -13 3 -14 -5 -1 -10 14 1 40 16 40 3
0 1 -5 -5 -11z m45 -33 c-10 -7 -16 -15 -13 -18 3 -2 -2 -5 -10 -5 -22 0 -18
12 8 25 30 15 35 14 15 -2z m-370 -5 c11 -7 10 -9 -3 -14 -9 -4 -14 -3 -10 2
3 5 -1 12 -7 14 -7 3 -8 6 -3 6 6 0 16 -3 23 -8z m-58 -41 c13 -8 13 -10 -2
-10 -9 0 -20 5 -23 10 -8 13 5 13 25 0z m34 -69 c3 -5 -1 -14 -8 -20 -12 -10
-14 -9 -11 6 2 10 4 19 4 21 2 5 10 2 15 -7z m132 -103 c21 -19 23 -58 2 -58
-5 0 -4 9 2 20 7 14 7 20 0 20 -5 0 -10 -5 -10 -11 0 -8 -5 -8 -15 1 -8 7 -15
17 -15 22 0 6 7 5 15 -2 9 -8 15 -9 15 -2 0 6 -4 13 -9 16 -13 8 -42 -4 -35
-15 9 -15 -3 -10 -16 7 -11 12 -11 15 1 12 8 -2 13 2 12 9 -4 16 26 6 53 -19z
m15 15 c13 -16 12 -17 -3 -4 -10 7 -18 15 -18 17 0 8 8 3 21 -13z m503 -5 c-5
-7 -2 -9 9 -5 10 4 14 2 11 -7 -7 -18 -32 -16 -29 3 5 22 4 21 11 21 3 0 2 -5
-2 -12z m42 -37 c-10 -11 -25 -17 -34 -14 -11 5 -13 3 -7 -7 5 -9 4 -11 -4 -6
-15 10 -3 29 14 22 8 -3 19 2 25 10 7 8 15 14 18 14 3 0 -3 -9 -12 -19z m40
-30 c1 -6 0 -7 -2 -2 -3 6 -12 7 -20 4 -8 -3 -14 -1 -14 5 0 14 33 8 36 -7z
m-540 -6 c-11 -8 -27 -15 -35 -15 -9 1 -2 7 14 15 39 18 44 18 21 0z m74 1
c-7 -7 -13 -7 -20 0 -6 6 -3 10 10 10 13 0 16 -4 10 -10z m17 -20 c-14 -13
-23 -28 -19 -32 4 -5 -1 -2 -10 5 -10 7 -18 10 -18 6 0 -4 -7 -2 -15 5 -8 7
-15 17 -15 23 0 6 7 2 16 -9 15 -19 16 -19 10 1 -6 19 -5 19 8 2 14 -18 16
-18 37 7 12 14 25 24 27 21 3 -3 -7 -16 -21 -29z m-72 -26 c10 -11 16 -20 13
-20 -3 0 -13 9 -23 20 -10 11 -16 20 -13 20 3 0 13 -9 23 -20z m182 -45 c0 -8
-3 -13 -5 -10 -3 3 -11 -3 -19 -13 -16 -19 -7 4 10 26 12 15 14 15 14 -3z
m-150 -30 c0 -8 -4 -12 -9 -9 -5 3 -6 10 -3 15 9 13 12 11 12 -6z m138 -25 c3
-5 1 -10 -4 -10 -6 0 -11 5 -11 10 0 6 2 10 4 10 3 0 8 -4 11 -10z m-21 -225
c-4 -8 -11 -15 -16 -15 -6 0 -5 6 2 15 7 8 14 15 16 15 2 0 1 -7 -2 -15z m30
-1 c3 -8 2 -12 -4 -9 -6 3 -10 10 -10 16 0 14 7 11 14 -7z"/>
<path d="M1517 2943 c-4 -3 -7 -11 -7 -17 0 -6 5 -5 12 2 6 6 9 14 7 17 -3 3
-9 2 -12 -2z"/>
<path d="M1745 2929 c-11 -17 1 -21 15 -4 8 9 8 15 2 15 -6 0 -14 -5 -17 -11z"/>
<path d="M1480 2880 c0 -5 5 -10 10 -10 6 0 10 5 10 10 0 6 -4 10 -10 10 -5 0
-10 -4 -10 -10z"/>
<path d="M2206 2636 c3 -8 13 -17 22 -21 13 -5 13 -2 -3 15 -21 24 -26 25 -19
6z"/>
<path d="M2430 2285 c0 -51 3 -65 15 -65 11 0 15 11 16 38 l0 37 16 -32 c9
-18 20 -33 25 -33 4 0 15 15 25 33 l18 32 3 -37 c2 -25 8 -38 18 -38 11 0 14
15 14 65 0 58 -2 65 -20 65 -13 0 -26 -13 -39 -37 l-19 -38 -18 38 c-11 22
-25 37 -36 37 -16 0 -18 -9 -18 -65z"/>
<path d="M2600 2302 c0 -55 20 -82 62 -82 38 0 58 29 58 83 0 40 -3 47 -19 47
-17 0 -20 -8 -23 -47 -2 -35 -7 -48 -18 -48 -11 0 -16 13 -18 48 -3 39 -6 47
-23 47 -16 0 -19 -7 -19 -48z"/>
<path d="M2740 2285 c0 -58 2 -65 20 -65 13 0 20 7 20 20 0 11 4 20 10 20 5 0
14 -9 20 -20 6 -11 20 -20 31 -20 17 0 18 3 9 20 -7 14 -8 26 0 39 14 27 13
37 -6 55 -9 10 -33 16 -60 16 l-44 0 0 -65z m78 18 c-5 -26 -38 -29 -38 -4 0
15 6 21 21 21 14 0 19 -5 17 -17z"/>
<path d="M2880 2285 c0 -58 2 -65 20 -65 18 0 20 7 20 65 0 58 -2 65 -20 65
-18 0 -20 -7 -20 -65z"/>
<path d="M2956 2289 c-31 -72 -31 -69 -6 -69 11 0 20 5 20 10 0 6 14 10 30 10
17 0 30 -4 30 -10 0 -5 9 -10 21 -10 23 0 21 9 -12 88 -27 62 -50 57 -83 -19z
m52 -18 c-15 -5 -21 7 -13 26 7 17 8 17 15 -2 4 -11 3 -22 -2 -24z"/>
<path d="M3130 2335 c0 -8 9 -15 20 -15 17 0 20 -7 20 -50 0 -38 4 -50 15 -50
11 0 15 12 15 50 0 43 3 50 20 50 11 0 20 7 20 15 0 12 -13 15 -55 15 -42 0
-55 -3 -55 -15z"/>
<path d="M3282 2306 c-32 -72 -35 -86 -18 -86 8 0 18 5 21 10 3 6 19 10 36 10
16 0 29 -4 29 -10 0 -5 9 -10 20 -10 24 0 25 -5 -4 66 -32 78 -56 84 -84 20z
m48 -22 c0 -8 -6 -14 -14 -14 -9 0 -12 7 -9 20 6 22 23 18 23 -6z"/>
<path d="M3400 2285 c0 -58 2 -65 20 -65 16 0 20 7 20 37 l0 38 27 -38 c14
-20 34 -37 45 -37 16 0 18 9 18 65 0 58 -2 65 -20 65 -16 0 -20 -7 -20 -32
l-1 -33 -27 33 c-15 18 -35 32 -44 32 -15 0 -18 -10 -18 -65z"/>
<path d="M3550 2285 c0 -58 2 -65 20 -65 18 0 20 7 20 65 0 58 -2 65 -20 65
-18 0 -20 -7 -20 -65z"/>
<path d="M1920 2225 c-7 -9 -8 -15 -2 -15 5 0 12 7 16 15 3 8 4 15 2 15 -2 0
-9 -7 -16 -15z"/>
</g>
</svg>
